<svg width="39" height="39" viewBox="0 0 39 39" fill="none" xmlns="http://www.w3.org/2000/svg">
<g clip-path="url(#clip0)">
<path d="M35.0459 3.3377H31.43V2.27571C31.43 1.02088 30.4091 0 29.1543 0C27.8995 0 26.8786 1.02088 26.8786 2.27571V3.3377H14.1346V2.27571C14.1346 1.02088 13.1138 0 11.8589 0C10.6041 0 9.58322 1.02088 9.58322 2.27571V3.36577C9.51875 3.34794 9.45116 3.3377 9.38099 3.3377H6.35855C4.26718 3.3377 2.56571 5.03917 2.56571 7.13054V20.0515C2.56571 20.4704 2.90539 20.81 3.32428 20.81C3.74316 20.81 4.08284 20.4704 4.08284 20.0515V11.151H31.43C31.8489 11.151 32.1886 10.8113 32.1886 10.3924C32.1886 9.97343 31.8489 9.63382 31.43 9.63382H4.08284V7.13054C4.08284 5.87572 5.10372 4.85484 6.35855 4.85484H9.38099C9.45116 4.85484 9.51875 4.84452 9.58322 4.82677V5.80305C9.58322 7.05787 10.6041 8.07876 11.8589 8.07876C13.1138 8.07876 14.1346 7.05787 14.1346 5.80305V4.85484H26.8786V5.80305C26.8786 7.05787 27.8995 8.07876 29.1543 8.07876C30.4091 8.07876 31.43 7.05787 31.43 5.80305V4.85484H35.0459C36.3007 4.85484 37.3216 5.87572 37.3216 7.13054V35.9557C37.3216 36.7088 36.7089 37.3216 35.9557 37.3216C35.2025 37.3216 34.5898 36.7088 34.5898 35.9557V33.9934C34.5898 33.5744 34.2501 33.2348 33.8312 33.2348H25.0075C24.5886 33.2348 24.2489 33.5744 24.2489 33.9934C24.2489 34.4123 24.5886 34.7519 25.0075 34.7519H33.0727V35.9557C33.0727 36.4496 33.1977 36.9148 33.4174 37.3216H2.88256C2.12968 37.3216 1.51714 36.709 1.51714 35.9562V34.7519H18.4958C18.9147 34.7519 19.2544 34.4123 19.2544 33.9934C19.2544 33.5744 18.9147 33.2348 18.4958 33.2348H10.9165C12.242 32.0932 13.0837 30.4046 13.0837 28.5222C13.0837 25.0923 10.2933 22.3019 6.86345 22.3019C3.43358 22.3019 0.64319 25.0923 0.64319 28.5222C0.64319 30.4046 1.4849 32.0932 2.81042 33.2348H0.758569C0.339687 33.2348 0 33.5744 0 33.9934V35.9562C0 37.5456 1.29313 38.8387 2.88256 38.8387H35.9557C37.5453 38.8387 38.8387 37.5454 38.8387 35.9557V7.13054C38.8387 5.03917 37.1372 3.3377 35.0459 3.3377ZM12.6175 5.80305C12.6175 6.22132 12.2772 6.56162 11.8589 6.56162C11.4407 6.56162 11.1004 6.22132 11.1004 5.80305V2.27571C11.1004 1.85743 11.4407 1.51714 11.8589 1.51714C12.2772 1.51714 12.6175 1.85743 12.6175 2.27571V5.80305ZM29.9129 5.80305C29.9129 6.22132 29.5726 6.56162 29.1543 6.56162C28.736 6.56162 28.3957 6.22132 28.3957 5.80305V2.27571C28.3957 1.85743 28.736 1.51714 29.1543 1.51714C29.5726 1.51714 29.9129 1.85743 29.9129 2.27571V5.80305ZM2.16033 28.5222C2.16033 25.9289 4.27013 23.8191 6.86345 23.8191C9.45677 23.8191 11.5666 25.9289 11.5666 28.5222C11.5666 31.1155 9.45677 33.2253 6.86345 33.2253C4.27013 33.2253 2.16033 31.1155 2.16033 28.5222Z" fill="#DDA046"/>
<path d="M35.5244 9.85605C35.3834 9.71496 35.1877 9.63379 34.9882 9.63379C34.7886 9.63379 34.593 9.71496 34.4519 9.85605C34.3108 9.99714 34.2296 10.1929 34.2296 10.3924C34.2296 10.5919 34.3107 10.7876 34.4519 10.9287C34.593 11.0698 34.7886 11.1509 34.9882 11.1509C35.1877 11.1509 35.3834 11.0698 35.5244 10.9287C35.6655 10.7876 35.7467 10.5919 35.7467 10.3924C35.7467 10.1929 35.6656 9.99714 35.5244 9.85605Z" fill="#DDA046"/>
<path d="M22.6544 33.4566C22.5134 33.3155 22.3177 33.2351 22.1182 33.2351C21.9187 33.2351 21.723 33.3155 21.5819 33.4566C21.4408 33.5985 21.3596 33.7934 21.3596 33.9929C21.3596 34.1932 21.4407 34.3881 21.5819 34.53C21.723 34.6711 21.9187 34.7515 22.1182 34.7515C22.3177 34.7515 22.5134 34.6711 22.6544 34.53C22.7955 34.3881 22.8768 34.1924 22.8768 33.9929C22.8768 33.7934 22.7956 33.5985 22.6544 33.4566Z" fill="#DDA046"/>
<path d="M17.1622 23.0604C15.5728 23.0604 14.2797 24.3536 14.2797 25.943C14.2797 27.5324 15.5728 28.8255 17.1622 28.8255C18.7517 28.8255 20.0448 27.5324 20.0448 25.943C20.0448 24.3536 18.7517 23.0604 17.1622 23.0604ZM17.1622 27.3084C16.4093 27.3084 15.7968 26.6959 15.7968 25.943C15.7968 25.1901 16.4093 24.5776 17.1622 24.5776C17.9151 24.5776 18.5276 25.1901 18.5276 25.943C18.5276 26.6959 17.9151 27.3084 17.1622 27.3084Z" fill="#DDA046"/>
<path d="M24.2421 23.0604C22.6526 23.0604 21.3595 24.3536 21.3595 25.943C21.3595 27.5324 22.6526 28.8255 24.2421 28.8255C25.8315 28.8255 27.1246 27.5324 27.1246 25.943C27.1246 24.3536 25.8315 23.0604 24.2421 23.0604ZM24.2421 27.3084C23.4892 27.3084 22.8766 26.6959 22.8766 25.943C22.8766 25.1901 23.4892 24.5776 24.2421 24.5776C24.9949 24.5776 25.6075 25.1901 25.6075 25.943C25.6075 26.6959 24.9949 27.3084 24.2421 27.3084Z" fill="#DDA046"/>
<path d="M31.3221 23.0604C29.7327 23.0604 28.4396 24.3536 28.4396 25.943C28.4396 27.5324 29.7327 28.8255 31.3221 28.8255C32.9116 28.8255 34.2047 27.5324 34.2047 25.943C34.2047 24.3536 32.9116 23.0604 31.3221 23.0604ZM31.3221 27.3084C30.5693 27.3084 29.9567 26.6959 29.9567 25.943C29.9567 25.1901 30.5693 24.5776 31.3221 24.5776C32.075 24.5776 32.6876 25.1901 32.6876 25.943C32.6876 26.6959 32.075 27.3084 31.3221 27.3084Z" fill="#DDA046"/>
<path d="M10.0823 15.1714C8.49284 15.1714 7.19971 16.4645 7.19971 18.0539C7.19971 19.6434 8.49284 20.9365 10.0823 20.9365C11.6717 20.9365 12.9648 19.6434 12.9648 18.0539C12.9648 16.4645 11.6717 15.1714 10.0823 15.1714ZM10.0823 19.4194C9.32939 19.4194 8.71684 18.8068 8.71684 18.0539C8.71684 17.3011 9.32939 16.6885 10.0823 16.6885C10.8351 16.6885 11.4477 17.3011 11.4477 18.0539C11.4477 18.8068 10.8351 19.4194 10.0823 19.4194Z" fill="#DDA046"/>
<path d="M24.2421 15.1714C22.6526 15.1714 21.3595 16.4645 21.3595 18.0539C21.3595 19.6434 22.6526 20.9365 24.2421 20.9365C25.8315 20.9365 27.1246 19.6434 27.1246 18.0539C27.1246 16.4645 25.8315 15.1714 24.2421 15.1714ZM24.2421 19.4194C23.4892 19.4194 22.8766 18.8068 22.8766 18.0539C22.8766 17.3011 23.4892 16.6885 24.2421 16.6885C24.9949 16.6885 25.6075 17.3011 25.6075 18.0539C25.6075 18.8068 24.9949 19.4194 24.2421 19.4194Z" fill="#DDA046"/>
<path d="M31.3221 15.1714C29.7327 15.1714 28.4396 16.4645 28.4396 18.0539C28.4396 19.6434 29.7327 20.9365 31.3221 20.9365C32.9116 20.9365 34.2047 19.6434 34.2047 18.0539C34.2047 16.4645 32.9116 15.1714 31.3221 15.1714ZM31.3221 19.4194C30.5693 19.4194 29.9567 18.8068 29.9567 18.0539C29.9567 17.3011 30.5693 16.6885 31.3221 16.6885C32.075 16.6885 32.6876 17.3011 32.6876 18.0539C32.6876 18.8068 32.075 19.4194 31.3221 19.4194Z" fill="#DDA046"/>
<path d="M17.1622 15.1714C15.5728 15.1714 14.2797 16.4645 14.2797 18.0539C14.2797 19.6434 15.5728 20.9365 17.1622 20.9365C18.7517 20.9365 20.0448 19.6434 20.0448 18.0539C20.0448 16.4645 18.7517 15.1714 17.1622 15.1714ZM17.1622 19.4194C16.4093 19.4194 15.7968 18.8068 15.7968 18.0539C15.7968 17.3011 16.4093 16.6885 17.1622 16.6885C17.9151 16.6885 18.5276 17.3011 18.5276 18.0539C18.5276 18.8068 17.9151 19.4194 17.1622 19.4194Z" fill="#DDA046"/>
<path d="M9.56583 26.6735C9.26954 26.3772 8.78936 26.3772 8.49299 26.6735L6.02264 29.1439L5.17843 28.2997C4.88213 28.0035 4.40196 28.0035 4.10559 28.2997C3.80937 28.5959 3.80937 29.0762 4.10559 29.3725L5.48626 30.753C5.62856 30.8953 5.82147 30.9752 6.02264 30.9752C6.22381 30.9752 6.41672 30.8953 6.55902 30.753L9.56583 27.7462C9.86206 27.45 9.86206 26.9697 9.56583 26.6735Z" fill="#DDA046"/>
</g>
<defs>
<clipPath id="clip0">
<rect width="38.8387" height="38.8387" fill="white"/>
</clipPath>
</defs>
</svg>
