<svg width="37" height="37" viewBox="0 0 37 37" fill="none" xmlns="http://www.w3.org/2000/svg">
<path d="M36.3208 0.814586C36.2557 0.623873 36.1388 0.455068 35.9831 0.327118C35.8274 0.199168 35.6392 0.117137 35.4395 0.0902323C35.198 0.0612581 29.5191 -0.634121 26.938 2.35022C24.777 4.85406 25.6438 8.91286 26.047 10.3471C25.5424 11.1149 24.3037 12.8896 22.29 15.321C23.1641 13.7709 23.8957 11.791 23.4345 9.88349C22.4977 6.02027 17.1568 4.37841 16.9153 4.3108C16.7248 4.25303 16.5221 4.24906 16.3295 4.29935C16.1369 4.34963 15.9619 4.4522 15.824 4.59571C15.6574 4.76956 11.7604 8.94183 12.6851 12.7737C13.6099 16.6055 18.9629 18.2788 19.2043 18.3464C19.3053 18.3769 19.4103 18.3924 19.5158 18.3922C19.5511 18.3947 19.5866 18.3947 19.622 18.3922C18.0381 20.1379 16.0509 22.1903 13.663 24.4285C14.4936 23.0136 15.1407 21.2703 14.8268 19.5415C14.1169 15.63 8.87261 13.6839 8.64806 13.6018C8.45872 13.5353 8.25464 13.5227 8.05854 13.5653C7.86244 13.608 7.68203 13.7042 7.53738 13.8433C7.36112 14.0099 3.22748 17.948 3.93251 21.8281C4.58926 25.4499 9.12854 27.3815 9.96879 27.7171C7.02144 30.2183 3.94776 32.5666 0.759846 34.753C0.570763 34.8828 0.428312 35.0699 0.353424 35.2867C0.278536 35.5035 0.27516 35.7386 0.343792 35.9575C0.412424 36.1763 0.549445 36.3674 0.734722 36.5026C0.919999 36.6379 1.14376 36.7101 1.37313 36.7087C1.59145 36.709 1.80462 36.6424 1.984 36.518C5.27493 34.2577 8.44548 31.827 11.4827 29.2358C11.4922 29.2794 11.5051 29.3222 11.5213 29.3638C11.6034 29.5859 13.5616 34.7964 17.4997 35.4991C17.8016 35.5538 18.1079 35.5813 18.4148 35.5812C22.0003 35.5812 25.3806 32.0801 25.5352 31.9207C25.675 31.7771 25.7718 31.5971 25.8145 31.4012C25.8571 31.2053 25.844 31.0013 25.7766 30.8125C25.6945 30.5904 23.7339 25.3798 19.7959 24.6748C18.4244 24.4333 17.0457 24.7786 15.8264 25.3412C17.758 23.5158 19.4047 21.8184 20.7858 20.319C21.387 21.5263 23.5335 25.3315 26.9404 25.7396C27.1423 25.7635 27.3455 25.7756 27.5489 25.7758C31.2527 25.7758 34.6065 21.8764 34.7538 21.7025C34.8834 21.55 34.9677 21.3642 34.9971 21.1662C35.0265 20.9682 35 20.7659 34.9204 20.5822C34.8262 20.3673 32.5662 15.2703 28.5943 14.8019C27.2784 14.6449 25.9891 15.0216 24.8494 15.5986C26.3319 13.7467 27.2977 12.368 27.7831 11.6485C28.0559 11.6654 28.3988 11.6799 28.7899 11.6799C30.7215 11.6799 33.8604 11.3346 35.594 9.32816C38.2017 6.31243 36.398 1.03672 36.3208 0.814586ZM10.2199 25.4619C8.78568 24.8028 6.40256 23.3372 6.05487 21.4224C5.70718 19.5077 7.43597 17.0763 8.54182 15.8691C9.97362 16.5234 12.3664 17.9866 12.7044 19.911C13.0425 21.8353 11.3257 24.2498 10.2199 25.4619ZM19.4071 26.7875C21.3387 27.1328 22.8116 29.499 23.4756 30.9211C22.3649 31.9207 20.2739 33.4346 18.4244 33.4346C18.2431 33.4351 18.0622 33.4197 17.8836 33.3888C15.952 33.0435 14.4791 30.6749 13.8151 29.2551C15.0224 28.1541 17.4369 26.435 19.4071 26.7875ZM19.1802 16.0719C17.7121 15.4996 15.2493 14.1789 14.7809 12.2763C14.3125 10.3736 15.9133 7.86255 16.954 6.5901C18.4027 7.16234 20.8776 8.48549 21.3363 10.3905C21.7951 12.2956 20.2112 14.7994 19.1802 16.0719ZM28.3263 16.9339C30.2724 17.1753 31.8853 19.4425 32.629 20.8236C31.4748 21.9923 29.1738 23.8466 27.1915 23.61C25.2478 23.3685 23.6349 21.0989 22.8888 19.7178C24.0454 18.5492 26.3464 16.6948 28.3263 16.9339ZM33.9497 7.93015C32.6483 9.42474 29.6929 9.60582 28.0607 9.5189C27.672 7.99776 27.3098 5.23314 28.5847 3.75788C29.8595 2.28261 32.8318 2.0822 34.4737 2.1812C34.8648 3.69027 35.2246 6.45489 33.9497 7.93015Z" fill="#DDA046"/>
</svg>
