<svg width="42" height="43" viewBox="0 0 42 43" fill="none" xmlns="http://www.w3.org/2000/svg">
<g clip-path="url(#clip0)">
<path d="M4.46338 21.0097C4.46338 30.5132 12.0518 38.2445 21.379 38.2445C30.7062 38.2445 38.2947 30.5132 38.2947 21.0097C38.2947 11.5065 30.7062 3.7749 21.379 3.7749C12.0518 3.7749 4.46338 11.5065 4.46338 21.0097ZM36.6837 21.0097C36.6837 29.6082 29.818 36.6031 21.379 36.6031C12.9401 36.6031 6.07439 29.6082 6.07439 21.0097C6.07439 12.4115 12.9401 5.41631 21.379 5.41631C29.818 5.41631 36.6837 12.4115 36.6837 21.0097Z" fill="#DDA046"/>
<path d="M37.3104 7.66938C34.3279 3.97556 30.1679 1.40798 25.5972 0.4398C25.1627 0.348112 24.7351 0.632473 24.6445 1.07649C24.5539 1.52018 24.8339 1.95458 25.2694 2.04691C34.0302 3.90279 40.389 11.8777 40.389 21.0097C40.389 31.6898 31.8613 40.3783 21.379 40.3783C10.8967 40.3783 2.36907 31.6898 2.36907 21.0097C2.36907 11.6306 8.93301 3.6149 17.977 1.95041C18.4147 1.86994 18.7054 1.44292 18.6265 0.996982C18.5472 0.551044 18.1284 0.2545 17.6907 0.335288C12.9964 1.19895 8.7074 3.7316 5.61344 7.46645C2.48234 11.2465 0.758057 16.0563 0.758057 21.0097C0.758057 26.6219 2.90303 31.8978 6.79778 35.8664C10.6925 39.8346 15.8711 42.0197 21.379 42.0197C26.887 42.0197 32.0655 39.8343 35.9603 35.8664C39.855 31.8978 42 26.6219 42 21.0097C42 16.1521 40.3346 11.4142 37.3104 7.66938Z" fill="#DDA046"/>
<path d="M21.4769 1.64141L21.5335 1.64173H21.5405C21.9819 1.64173 22.3419 1.27883 22.3457 0.828079C22.3494 0.374767 21.9917 0.00416764 21.5471 0.000320588L21.4904 0C21.4879 0 21.4857 0 21.4835 0C21.0417 0 20.6818 0.362906 20.678 0.813973C20.6745 1.26728 21.032 1.63756 21.4769 1.64141Z" fill="#DDA046"/>
<path d="M20.5839 7.85147C20.5839 8.06722 20.6701 8.27817 20.8199 8.43173C20.9706 8.58433 21.1776 8.67217 21.3894 8.67217C21.6021 8.67217 21.8091 8.58433 21.9589 8.43173C22.1096 8.27817 22.1958 8.06722 22.1958 7.85147C22.1958 7.63539 22.1096 7.4238 21.9589 7.2712C21.8097 7.1186 21.6021 7.03076 21.3894 7.03076C21.1776 7.03076 20.9699 7.11764 20.8199 7.2712C20.6701 7.4238 20.5839 7.63475 20.5839 7.85147Z" fill="#DDA046"/>
<path d="M21.3686 33.3475C21.1559 33.3475 20.9479 33.4354 20.7991 33.588C20.6484 33.7406 20.5631 33.9525 20.5631 34.1682C20.5631 34.385 20.6484 34.5959 20.7991 34.7485C20.9489 34.9017 21.1559 34.9889 21.3686 34.9889C21.5804 34.9889 21.7874 34.9017 21.9378 34.7485C22.0879 34.5959 22.1741 34.384 22.1741 34.1682C22.1741 33.9525 22.0879 33.7415 21.9378 33.588C21.788 33.4354 21.5804 33.3475 21.3686 33.3475Z" fill="#DDA046"/>
<path d="M34.2937 21.8413C34.5057 21.8413 34.7134 21.7541 34.8632 21.6015C35.0139 21.448 35.0992 21.237 35.0992 21.0206C35.0992 20.8045 35.0139 20.593 34.8632 20.4404C34.7134 20.2878 34.5064 20.2006 34.2937 20.2006C34.0819 20.2006 33.8742 20.2878 33.7245 20.4404C33.5744 20.5936 33.4882 20.8045 33.4882 21.0206C33.4882 21.2364 33.5744 21.448 33.7245 21.6015C33.8749 21.7541 34.0819 21.8413 34.2937 21.8413Z" fill="#DDA046"/>
<path d="M8.46444 20.1785C8.25142 20.1785 8.0447 20.2657 7.89492 20.4183C7.74421 20.5709 7.65894 20.7825 7.65894 20.9992C7.65894 21.2149 7.74421 21.4268 7.89492 21.5794C8.0447 21.732 8.25174 21.8199 8.46444 21.8199C8.6762 21.8199 8.88387 21.732 9.03365 21.5794C9.18342 21.4268 9.26995 21.2149 9.26995 20.9992C9.26995 20.7825 9.18374 20.5709 9.03365 20.4183C8.88387 20.2653 8.6762 20.1785 8.46444 20.1785Z" fill="#DDA046"/>
<path d="M14.9309 8.78796C14.7191 8.78796 14.5111 8.8758 14.3614 9.0284C14.2116 9.181 14.1254 9.39291 14.1254 9.60867C14.1254 9.82442 14.2116 10.0363 14.3614 10.1889C14.5111 10.3415 14.7191 10.4294 14.9309 10.4294C15.1426 10.4294 15.3506 10.3415 15.5004 10.1889C15.6502 10.0363 15.7364 9.82442 15.7364 9.60867C15.7364 9.39291 15.6502 9.181 15.5004 9.0284C15.3506 8.8758 15.1426 8.78796 14.9309 8.78796Z" fill="#DDA046"/>
<path d="M27.8272 31.5905C27.6155 31.5905 27.4075 31.6783 27.2577 31.8309C27.1079 31.9835 27.0217 32.1951 27.0217 32.4112C27.0217 32.6269 27.1079 32.8388 27.2577 32.9914C27.4075 33.144 27.6155 33.2319 27.8272 33.2319C28.039 33.2319 28.247 33.144 28.3968 32.9914C28.5465 32.8388 28.6327 32.6269 28.6327 32.4112C28.6327 32.1951 28.5465 31.9835 28.3968 31.8309C28.247 31.6783 28.039 31.5905 27.8272 31.5905Z" fill="#DDA046"/>
<path d="M32.5693 15.2609C32.7811 15.2609 32.9887 15.1731 33.1385 15.0202C33.2883 14.8676 33.3748 14.656 33.3748 14.4402C33.3748 14.2241 33.2886 14.0125 33.1385 13.8599C32.9887 13.7073 32.7811 13.6195 32.5693 13.6195C32.3572 13.6195 32.1496 13.707 31.9998 13.8599C31.85 14.0125 31.7638 14.2241 31.7638 14.4402C31.7638 14.656 31.8497 14.8676 31.9998 15.0202C32.1496 15.1731 32.3572 15.2609 32.5693 15.2609Z" fill="#DDA046"/>
<path d="M10.1888 26.7588C9.97705 26.7588 9.76938 26.8466 9.6196 26.9992C9.46952 27.1518 9.3833 27.3637 9.3833 27.5795C9.3833 27.7952 9.46952 28.0072 9.6196 28.1598C9.76938 28.3124 9.97705 28.4002 10.1888 28.4002C10.4009 28.4002 10.6086 28.3124 10.7583 28.1598C10.9081 28.0072 10.9943 27.7952 10.9943 27.5795C10.9943 27.3637 10.9084 27.1518 10.7583 26.9992C10.6086 26.8466 10.4015 26.7588 10.1888 26.7588Z" fill="#DDA046"/>
<path d="M10.1995 13.6007C9.98747 13.6007 9.77981 13.6882 9.63003 13.8411C9.48026 13.9937 9.39404 14.2047 9.39404 14.4214C9.39404 14.6372 9.47994 14.8481 9.63003 15.0014C9.78075 15.154 9.98747 15.2421 10.1995 15.2421C10.4123 15.2421 10.6193 15.1543 10.7688 15.0014C10.9195 14.8481 11.0051 14.6372 11.0051 14.4214C11.0051 14.2047 10.9195 13.9937 10.7688 13.8411C10.6193 13.6885 10.4123 13.6007 10.1995 13.6007Z" fill="#DDA046"/>
<path d="M32.5586 28.4191C32.7706 28.4191 32.9783 28.3313 33.1281 28.1787C33.2779 28.0261 33.3641 27.8142 33.3641 27.5984C33.3641 27.3827 33.2779 27.1708 33.1281 27.0182C32.9783 26.8656 32.7706 26.7777 32.5586 26.7777C32.3459 26.7777 32.1388 26.8656 31.989 27.0182C31.8386 27.1708 31.7531 27.3827 31.7531 27.5984C31.7531 27.8142 31.8386 28.0261 31.989 28.1787C32.1382 28.3313 32.3459 28.4191 32.5586 28.4191Z" fill="#DDA046"/>
<path d="M27.8454 10.44C28.0575 10.44 28.2652 10.3528 28.4149 10.2002C28.5657 10.047 28.6509 9.83505 28.6509 9.61929C28.6509 9.40353 28.5657 9.19163 28.4149 9.03903C28.2652 8.88643 28.0575 8.79858 27.8454 8.79858C27.6337 8.79858 27.426 8.88643 27.2762 9.03903C27.1264 9.19163 27.0399 9.40353 27.0399 9.61929C27.0399 9.83505 27.1261 10.047 27.2762 10.2002C27.426 10.3531 27.6337 10.44 27.8454 10.44Z" fill="#DDA046"/>
<path d="M14.9123 31.5798C14.6996 31.5798 14.4929 31.6667 14.3428 31.8203C14.193 31.9729 14.1068 32.1838 14.1068 32.4005C14.1068 32.6163 14.193 32.8279 14.3428 32.9805C14.4929 33.1334 14.6999 33.2212 14.9123 33.2212C15.1244 33.2212 15.3321 33.1334 15.4818 32.9805C15.6316 32.8272 15.7178 32.6163 15.7178 32.4005C15.7178 32.1845 15.6316 31.9729 15.4818 31.8203C15.3321 31.6667 15.1244 31.5798 14.9123 31.5798Z" fill="#DDA046"/>
<path d="M28.0104 13.1031L22.8403 18.371C22.4083 18.1216 21.9099 17.9786 21.3791 17.9786C20.8508 17.9786 20.3549 18.1203 19.9244 18.3672L17.4529 15.849C17.1382 15.5287 16.6285 15.5287 16.3135 15.849C15.9992 16.1695 15.9992 16.6892 16.3135 17.0098L18.7851 19.5277C18.5428 19.9663 18.4041 20.4718 18.4041 21.0098C18.4041 22.6813 19.7385 24.0413 21.3791 24.0413C23.0197 24.0413 24.3541 22.6813 24.3541 21.0098C24.3541 20.4744 24.2166 19.9714 23.9765 19.5344L29.1497 14.264C29.464 13.9434 29.464 13.4237 29.1497 13.1031C28.8351 12.7828 28.325 12.7828 28.0104 13.1031ZM21.3791 22.3998C20.6267 22.3998 20.0151 21.7763 20.0151 21.0098C20.0151 20.2436 20.6267 19.62 21.3791 19.62C22.1314 19.62 22.7431 20.2436 22.7431 21.0098C22.7431 21.7763 22.1314 22.3998 21.3791 22.3998Z" fill="#DDA046"/>
<path d="M24.889 27.9037H17.8896C17.4447 27.9037 17.0841 28.2714 17.0841 28.7244C17.0841 29.1777 17.4447 29.5451 17.8896 29.5451H24.889C25.3339 29.5451 25.6945 29.1777 25.6945 28.7244C25.6945 28.2714 25.3339 27.9037 24.889 27.9037Z" fill="#DDA046"/>
</g>
<defs>
<clipPath id="clip0">
<rect width="41.242" height="42.0201" fill="white" transform="translate(0.758057)"/>
</clipPath>
</defs>
</svg>
