<svg width="43" height="43" viewBox="0 0 43 43" fill="none" xmlns="http://www.w3.org/2000/svg">
<path d="M38.8007 12.0926H37.8952L26.0488 0.246225C25.7209 -0.0817343 25.189 -0.0817343 24.8611 0.246225L21.8262 3.28117L9.68849 0.0288732C9.24043 -0.0913085 8.77986 0.17467 8.65985 0.622727L5.58669 12.0926H3.52824C1.58333 12.0926 0.000976562 13.6749 0.000976562 15.6199C0.000976562 15.6665 0.00274023 15.7128 0.00450391 15.759C0.00257227 15.7821 0.000976562 15.8053 0.000976562 15.8289V38.8009C0.000976563 41.1162 1.88475 43 4.20011 43H34.2656C34.2786 43 34.2914 42.9991 34.3044 42.999H38.8006C41.1159 42.999 42.9996 41.1153 42.9996 38.7998V16.2917C42.9997 13.9762 41.116 12.0926 38.8007 12.0926ZM38.0503 13.7722H38.8007C40.1899 13.7722 41.3201 14.9025 41.3201 16.2917V23.0225C41.3201 24.12 40.4271 25.013 39.3296 25.013H38.4647V21.6665C38.4647 19.3804 36.6281 17.5164 34.3529 17.4696L38.0503 13.7722ZM22.6711 4.8117C22.6712 4.81162 22.6713 4.81145 22.6714 4.81136L25.455 2.0277L36.4373 13.01L32.0072 17.4402H30.4708L32.4803 15.4305C32.8083 15.1026 32.8083 14.5708 32.4803 14.2428C31.8005 13.563 31.8005 12.4569 32.4803 11.777C32.8083 11.4491 32.8083 10.9173 32.4803 10.5892L27.8756 5.98471C27.5477 5.65675 27.0159 5.65675 26.6879 5.98471C26.008 6.66465 24.9018 6.66465 24.2221 5.98471C23.8941 5.65675 23.3622 5.65675 23.0344 5.98471L11.5789 17.4403H10.0425L22.6711 4.8117ZM20.1996 14.285C18.2824 14.285 16.6761 15.6387 16.2843 17.4403H13.9541L23.7019 7.69253C24.7778 8.33384 26.1321 8.33384 27.208 7.69253L30.7724 11.2569C30.1312 12.3328 30.1312 13.6873 30.7724 14.7631L28.0953 17.4403H24.1148C23.723 15.6386 22.1168 14.285 20.1996 14.285ZM22.3652 17.4403H18.0343C18.3751 16.5772 19.217 15.9647 20.1997 15.9647C21.1824 15.9647 22.0243 16.5772 22.3652 17.4403ZM9.15485 15.9525L11.3789 7.65205C11.9887 7.66188 12.5954 7.50617 13.1387 7.19232C13.682 6.87864 14.1193 6.4326 14.4166 5.89821L18.1964 6.91097L12.7113 12.3961L9.15485 15.9525ZM10.065 1.86864L20.4548 4.65255L19.5678 5.53959L14.1399 4.08515C13.9247 4.02745 13.6955 4.05769 13.5026 4.16905C13.3097 4.28041 13.169 4.46384 13.1114 4.679C12.9908 5.12882 12.7023 5.50482 12.299 5.73771C11.8956 5.9706 11.4257 6.03241 10.9758 5.9119C10.5279 5.7918 10.0673 6.05769 9.94724 6.50575L7.00998 17.4675H5.88526L10.065 1.86864ZM3.52824 13.7722H5.13645L4.14628 17.4675H3.52815C2.50934 17.4675 1.68058 16.6386 1.68058 15.6199C1.68066 14.6011 2.50959 13.7722 3.52824 13.7722ZM41.3201 38.7998C41.3201 40.1891 40.1898 41.3193 38.8007 41.3193H37.6234C38.1514 40.6172 38.4647 39.745 38.4647 38.8008V35.4267H38.9686C39.8458 35.4267 40.6576 35.1443 41.3201 34.6667V38.7998ZM41.3201 31.3956C41.3201 32.6922 40.2652 33.7471 38.9686 33.7471H21.3324C19.3875 33.7471 17.8052 32.1648 17.8052 30.2198C17.8052 28.2748 19.3874 26.6926 21.3324 26.6926H23.8776C24.3415 26.6926 24.7175 26.3165 24.7175 25.8527C24.7175 25.389 24.3415 25.0129 23.8776 25.0129H21.3324C18.4613 25.0129 16.1256 27.3487 16.1256 30.2197C16.1256 33.0908 18.4613 35.4266 21.3324 35.4266H36.7851V38.8008C36.7851 40.177 35.6758 41.2993 34.3045 41.3202H5.71175V31.8628C5.71175 31.3991 5.33575 31.023 4.8719 31.023C4.40806 31.023 4.03206 31.3991 4.03206 31.8628V41.3141C2.72089 41.2273 1.68058 40.1336 1.68058 38.8009V18.6228C2.21833 18.9549 2.85115 19.1471 3.52815 19.1471H34.2655C35.6548 19.1471 36.785 20.2773 36.785 21.6665V25.013H30.7126C30.2488 25.013 29.8728 25.389 29.8728 25.8528C29.8728 26.3166 30.2488 26.6927 30.7126 26.6927H39.3296C40.063 26.6927 40.7463 26.4756 41.3201 26.1035V31.3956Z" fill="#DDA046"/>
</svg>
