<svg width="43" height="43" viewBox="0 0 43 43" fill="none" xmlns="http://www.w3.org/2000/svg">
<g clip-path="url(#clip0)">
<path d="M42.5492 26.5658C42.276 26.4573 41.964 26.5252 41.7609 26.7378L38.7001 29.9551V10.845H38.7037L41.6241 7.69167C41.8928 7.40133 41.8751 6.94762 41.5844 6.67894C41.5844 6.67894 41.5841 6.67861 41.5837 6.67828L40.5326 5.7L41.9932 4.12332C42.2615 3.83266 42.2435 3.37927 41.9528 3.11091L38.7995 0.19049C38.5091 -0.0781947 38.0557 -0.0608073 37.7871 0.229857L32.6916 5.73182H7.88338C7.88108 3.75359 6.27816 2.15067 4.29993 2.14838H3.58344C1.60522 2.15067 0.00229645 3.75359 0 5.73182V36.5485C0 36.9441 0.320847 37.265 0.71682 37.265H11.5656L10.0604 39.0723C9.80747 39.3767 9.84881 39.8285 10.1529 40.0814L13.4575 42.8329C13.7616 43.0862 14.2137 43.0448 14.467 42.7407L14.4673 42.7404L18.1354 38.3335C18.3886 38.0284 18.5517 37.658 18.6055 37.265H31.7376L27.4304 41.788C27.1578 42.0747 27.1693 42.5285 27.456 42.8011C27.5892 42.9277 27.766 42.9986 27.9501 42.9982H42.2832C42.6792 42.9982 43 42.6774 43 42.2817V27.2318C43 26.9385 42.8215 26.6748 42.5492 26.5658ZM40.0855 7.23665L38.7001 8.73524V7.68117L39.5599 6.74947L40.0855 7.23665ZM37.2668 7.10903V7.1192L31.2058 13.6697L29.1009 11.7223L36.4023 3.83167L38.5072 5.77906L37.2753 7.10903H37.2668ZM29.8292 14.3474L28.1807 14.8284L28.5327 13.147L29.8292 14.3474ZM38.3497 1.7278L40.4536 3.6742L39.4799 4.72827L37.3757 2.7799L38.3497 1.7278ZM3.58344 3.58169H4.29993C5.48753 3.58169 6.45007 4.54423 6.45007 5.73182V32.9838C5.83331 32.5094 5.07777 32.2509 4.29993 32.2482H3.58344C2.80527 32.2509 2.05007 32.5094 1.43331 32.9838V5.73182C1.43331 4.54423 2.39585 3.58169 3.58344 3.58169ZM3.58344 33.6816H4.29993C5.48753 33.6816 6.45007 34.6444 6.45007 35.8317H1.43331C1.43331 34.6444 2.39585 33.6816 3.58344 33.6816ZM17.0344 37.4169L16.5758 37.9674L14.3728 36.1335L14.8308 35.5824C15.0841 35.2782 15.5358 35.2369 15.8399 35.4902C15.8402 35.4902 15.8402 35.4905 15.8406 35.4905L16.9419 36.4051C17.2463 36.6581 17.288 37.1098 17.035 37.4143C17.0347 37.4146 17.0347 37.4146 17.0344 37.4149V37.4169ZM13.8246 41.2726L11.6213 39.4387L13.4555 37.2348L15.6585 39.069L13.8246 41.2726ZM18.3043 35.8317C18.1852 35.6332 18.0347 35.4557 17.8585 35.3058L16.7572 34.3892C15.8445 33.6294 14.4889 33.7531 13.7291 34.6657L12.7568 35.8317H7.88338V7.16513H31.3655L27.5623 11.2751C27.5078 11.3365 27.4645 11.4073 27.4347 11.4838C27.4261 11.5044 27.4196 11.5238 27.4124 11.5454C27.4055 11.5668 27.3947 11.5884 27.3894 11.6114L26.5338 15.702C26.4531 16.0895 26.7018 16.469 27.0892 16.5497C27.2044 16.5737 27.3235 16.5691 27.436 16.5363L31.4495 15.3667C31.4682 15.3608 31.484 15.35 31.5017 15.3438C31.5197 15.3372 31.5384 15.328 31.5578 15.3185C31.6382 15.2821 31.711 15.2306 31.7727 15.1673L37.2668 9.22964V31.4599L33.103 35.8317H18.3043ZM41.5667 41.5649H29.6219L41.5667 29.0234V41.5649Z" fill="#DDA046"/>
<path d="M33.7378 39.6895C33.8486 39.9572 34.1101 40.1317 34.4001 40.1317H39.4165C39.8125 40.1317 40.1334 39.8109 40.1334 39.4153V34.3985C40.1334 34.0025 39.8122 33.682 39.4165 33.682C39.2266 33.682 39.0442 33.7575 38.91 33.892L33.8933 38.9084C33.6882 39.1134 33.6269 39.4218 33.7378 39.6895ZM38.7 36.1284V38.6984H36.13L38.7 36.1284Z" fill="#DDA046"/>
<path d="M31.5332 27.232H26.5168V19.3486C26.5158 19.1583 26.44 18.9759 26.3058 18.8411L22.0059 14.5412C21.726 14.2613 21.2723 14.2613 20.9925 14.5412L16.6926 18.8411C16.559 18.9763 16.4839 19.1587 16.4832 19.3486V27.232H11.4668C11.0708 27.232 10.75 27.5528 10.75 27.9485C10.75 28.3445 11.0708 28.6653 11.4668 28.6653H31.5335C31.9292 28.6653 32.25 28.3445 32.25 27.9485C32.25 27.5528 31.9292 27.232 31.5332 27.232ZM21.5 16.0618L24.0701 18.6318H18.9299L21.5 16.0618ZM17.9166 20.0651H25.0834V27.232H17.9166V20.0651Z" fill="#DDA046"/>
<path d="M20.7832 11.4652H22.2168V12.8985H20.7832V11.4652Z" fill="#DDA046"/>
<path d="M20.7832 30.0985H22.2168V31.5318H20.7832V30.0985Z" fill="#DDA046"/>
</g>
<defs>
<clipPath id="clip0">
<rect width="43" height="43" fill="white"/>
</clipPath>
</defs>
</svg>
