<svg width="42" height="42" viewBox="0 0 42 42" fill="none" xmlns="http://www.w3.org/2000/svg">
<path d="M39.3789 24.8718H33.1612V14.509H39.3789C39.7604 14.509 40.0697 14.1996 40.0697 13.8181V10.4122L41.4445 0.789936C41.4987 0.412296 41.2365 0.0621175 40.8588 0.00797151C40.8262 0.00330822 40.7934 0.000976581 40.7606 0.000976581H21.4166C21.0351 0.000890223 20.7257 0.310222 20.7256 0.691748C20.7256 0.724563 20.728 0.757379 20.7326 0.789936L22.1074 10.4122V13.8181C22.1074 14.1996 22.4168 14.509 22.7983 14.509H29.016V24.8718H28.3252C27.1805 24.8718 26.2526 25.7997 26.2526 26.9444C26.2526 28.0891 27.1805 29.017 28.3252 29.017H29.016V30.3987H24.18L24.8246 20.7267H25.5617C25.9432 20.7267 26.2526 20.4174 26.2526 20.0358V17.2724C26.2526 16.8909 25.9432 16.5816 25.5617 16.5816H20.6739C20.4555 15.0845 19.5503 13.7754 18.2269 13.0423C19.3222 10.6064 18.2355 7.74376 15.7996 6.64841C13.3637 5.55305 10.501 6.63977 9.40568 9.07573C9.21561 9.49837 9.08728 9.94613 9.02467 10.4054C5.23739 9.9957 1.835 12.7337 1.42533 16.521C1.42317 16.5412 1.42101 16.5614 1.41902 16.5816H0.690857C0.309331 16.5816 0 16.891 0 17.2725V20.0359C0 20.4175 0.309331 20.7268 0.690857 20.7268H1.42662L2.76343 40.8072C2.78752 41.1708 3.08986 41.4532 3.45429 41.4524H40.7606C41.1421 41.4524 41.4514 41.1431 41.4514 40.7616V26.9444C41.4514 25.7997 40.5235 24.8718 39.3789 24.8718ZM22.2131 1.38269H24.8709V5.52784H26.2526V1.38269H27.6343V2.76441H29.016V1.38269H33.1612V3.45526H34.5429V1.38269H35.9246V5.52784H37.3063V1.38269H39.964L38.7799 9.67298H23.3973L22.2131 1.38269ZM23.4891 13.1273V11.0547H38.688V13.1273H23.4891ZM31.7794 14.509V24.8718H30.3977V14.509H31.7794ZM24.8709 17.9633V19.345H14.508V17.9633H24.8709ZM8.96068 11.7891C9.15058 11.8127 9.3391 11.8461 9.52554 11.8892C9.53314 11.8892 9.54074 11.8892 9.54834 11.8892C10.3588 12.0799 11.116 12.4503 11.7639 12.9732L12.633 11.8989C11.9682 11.3658 11.2107 10.9598 10.3988 10.701C10.5971 8.80854 12.2921 7.43521 14.1845 7.63357C16.0769 7.83193 17.4503 9.52686 17.2519 11.4193C17.1934 11.9782 16.9989 12.5143 16.6857 12.9808C16.4734 13.2978 16.5583 13.7269 16.8754 13.9392C16.9238 13.9716 16.9762 13.9977 17.0311 14.0171C18.1742 14.4206 19.0222 15.3939 19.2653 16.5816H13.8171C13.4356 16.5816 13.1263 16.8909 13.1263 17.2724V23.4901C13.1263 23.8717 12.817 24.181 12.4354 24.181C12.0539 24.181 11.7446 23.8717 11.7446 23.4901V22.1084C11.7446 20.9637 10.8167 20.0358 9.672 20.0358C8.52734 20.0358 7.59943 20.9637 7.59943 22.1084V26.9444C7.59943 27.3259 7.2901 27.6353 6.90857 27.6353C6.52705 27.6353 6.21772 27.3259 6.21772 26.9444V17.2724C6.21772 16.8909 5.90838 16.5816 5.52686 16.5816H2.80972C3.18485 13.5596 5.9387 11.4139 8.96068 11.7891ZM1.38171 19.345V17.9633H4.836V19.345H1.38171ZM19.344 32.4713V40.0707H4.10093L2.8111 20.7267H4.836V26.9444C4.836 28.0891 5.76391 29.017 6.90857 29.017C8.05324 29.017 8.98115 28.0891 8.98115 26.9444V22.1084C8.98115 21.7269 9.29048 21.4176 9.672 21.4176C10.0535 21.4176 10.3629 21.7269 10.3629 22.1084V23.4901C10.3629 24.6348 11.2908 25.5627 12.4354 25.5627C13.5801 25.5627 14.508 24.6348 14.508 23.4901V20.7267H23.4415L22.7983 30.3987H21.4166C20.2719 30.3987 19.344 31.3266 19.344 32.4713ZM40.0697 40.0707H37.9972V36.6164H36.6154V40.0707H34.5429V36.6164H33.1612V40.0707H31.0886V36.6164H29.7069V40.0707H27.6343V36.6164H26.2526V40.0707H24.18V36.6164H22.7983V40.0707H20.7257V34.5438H40.0697V40.0707ZM40.0697 33.1621H20.7257V32.4713C20.7257 32.0897 21.0351 31.7804 21.4166 31.7804H36.6154C37.7601 31.7804 38.688 30.8525 38.688 29.7078C38.688 28.5632 37.7601 27.6353 36.6154 27.6353H28.3252C27.9436 27.6353 27.6343 27.3259 27.6343 26.9444C27.6343 26.5629 27.9436 26.2536 28.3252 26.2536H39.3789C39.7604 26.2536 40.0697 26.5629 40.0697 26.9444V33.1621ZM30.3977 30.3987V29.017H31.7794V30.3987H30.3977ZM33.1612 30.3987V29.017H36.6154C36.997 29.017 37.3063 29.3263 37.3063 29.7078C37.3063 30.0894 36.997 30.3987 36.6154 30.3987H33.1612Z" fill="#DDA046"/>
</svg>
