<svg width="20" height="20" viewBox="0 0 20 20" fill="none" xmlns="http://www.w3.org/2000/svg">
<path d="M19.5283 4.42442C12.7425 3.07571 13.1818 3.14614 13.0281 3.172C12.9789 3.1802 12.3767 3.30125 10.9729 3.582C10.3844 1.88497 8.7698 0.663208 6.875 0.663208C4.97844 0.663208 3.36258 1.88727 2.77543 3.5868L0.700156 3.17442C0.338437 3.1027 0 3.37922 0 3.74915V17.4991C0 17.7787 0.197539 18.0193 0.471719 18.0738C7.20016 19.4112 6.75965 19.3249 6.80426 19.3303C6.94574 19.3477 6.50848 19.42 13.1254 18.0966L19.2998 19.3238C19.6618 19.3957 20 19.1187 20 18.7491V4.99915C20 4.71958 19.8025 4.47895 19.5283 4.42442ZM6.875 1.83508C8.61965 1.83508 10.0391 3.25446 10.0391 4.99915C10.0391 6.47114 7.68367 10.2077 6.875 11.444C6.06723 10.209 3.71094 6.47145 3.71094 4.99915C3.71094 3.25446 5.13035 1.83508 6.875 1.83508ZM1.17188 4.46293L2.54727 4.73626C2.54203 4.82325 2.53906 4.91083 2.53906 4.99911C2.53906 5.97622 3.17824 7.55305 4.49316 9.81977C5.26098 11.1433 6.01789 12.2797 6.28906 12.68V18.0352L1.17188 17.0182V4.46293ZM7.46094 12.68C7.73207 12.2797 8.48902 11.1434 9.25684 9.81977C10.5718 7.55305 11.2109 5.97622 11.2109 4.99915C11.2109 4.90915 11.2079 4.81985 11.2024 4.73122L12.5391 4.46383V17.0188L7.46094 18.0344V12.68ZM18.8281 18.0353L13.7109 17.0182V4.46297L18.8281 5.48004V18.0353Z" fill="#DDA046"/>
<path d="M6.875 6.83509C7.88734 6.83509 8.71094 6.01149 8.71094 4.99915C8.71094 3.9868 7.88734 3.16321 6.875 3.16321C5.86266 3.16321 5.03906 3.9868 5.03906 4.99915C5.03906 6.01149 5.86266 6.83509 6.875 6.83509ZM6.875 4.33508C7.24117 4.33508 7.53906 4.63297 7.53906 4.99915C7.53906 5.36532 7.24117 5.66321 6.875 5.66321C6.50883 5.66321 6.21094 5.36532 6.21094 4.99915C6.21094 4.63297 6.50883 4.33508 6.875 4.33508Z" fill="#DDA046"/>
</svg>
