<svg width="20" height="20" viewBox="0 0 20 20" fill="none" xmlns="http://www.w3.org/2000/svg">
<path d="M19.9847 7.7186C19.9847 7.68853 19.978 7.6431 19.9663 7.61692C19.9355 7.50544 19.8672 7.4036 19.765 7.33251L16.902 5.34235V3.20892C16.902 2.9261 16.6726 2.69673 16.3898 2.69673H13.0961L10.2936 0.74837C10.1185 0.626456 9.88594 0.625948 9.71023 0.747354L6.88969 2.69673H3.61039C3.3275 2.69673 3.0982 2.9261 3.0982 3.20892V5.31724L0.221328 7.30556C0.0798047 7.40337 0.00324219 7.55974 0.000820312 7.71962C0.000664063 7.72263 0 7.72548 0 7.7286L0.0152734 18.8315C0.0154688 18.9674 0.0696094 19.0975 0.165742 19.1935C0.261758 19.2892 0.391836 19.343 0.527461 19.343C0.527734 19.343 0.52793 19.343 0.528164 19.343L19.4885 19.3169C19.7713 19.3165 20.0004 19.0869 20 18.804L19.9847 7.7186ZM16.902 6.58997L18.5386 7.72739L16.902 8.8652V6.58997ZM10.0006 1.79216L11.3018 2.69669H8.69191L10.0006 1.79216ZM4.12258 3.7211H15.8776V9.57739L11.9309 12.3212L10.3217 11.073C10.3192 11.0711 10.3171 11.0699 10.3146 11.0681C10.1348 10.9332 9.88043 10.9282 9.69379 11.073L8.07297 12.3302L4.12258 9.60005V3.7211ZM3.0982 6.56243V8.89212L1.41281 7.72731L3.0982 6.56243ZM1.0257 8.70556L7.22371 12.989L1.0382 17.7868L1.0257 8.70556ZM2.02637 18.3166L10.0078 12.1258L17.9605 18.2947L2.02637 18.3166ZM12.7791 12.9792L18.9617 8.68087L18.9742 17.7847L12.7791 12.9792Z" fill="#DDA046"/>
</svg>
