<svg width="19" height="19" viewBox="0 0 19 19" fill="none" xmlns="http://www.w3.org/2000/svg">
<path d="M12.8895 18.1983H12.6662C11.486 18.099 10.3375 17.7736 9.28685 17.2408C7.01856 16.1669 5.00969 14.6373 3.39263 12.7525C2.16188 11.3668 1.18819 9.78308 0.515144 8.07223C0.142839 7.20188 -0.0313323 6.2633 0.00462148 5.32111C0.0452502 4.65704 0.343939 4.03292 0.840022 3.57553C1.09818 3.33827 1.34764 3.09536 1.5942 2.85244C1.78565 2.6632 1.96259 2.50502 2.14243 2.33272C2.3107 2.15295 2.51564 2.00933 2.74415 1.91107C2.97265 1.8128 3.2197 1.76205 3.4695 1.76205C3.7193 1.76205 3.96635 1.8128 4.19486 1.91107C4.42337 2.00933 4.62831 2.15295 4.79657 2.33272C5.14756 2.66885 5.49564 3.01062 5.84372 3.35522L6.157 3.66027L6.85317 4.34099C7.04508 4.5056 7.1988 4.70811 7.3041 4.93506C7.40939 5.16201 7.46385 5.4082 7.46385 5.65723C7.46385 5.90627 7.40939 6.15245 7.3041 6.3794C7.1988 6.60635 7.04508 6.80887 6.85317 6.97348L6.53699 7.28136C6.26142 7.54969 5.98876 7.81802 5.71029 8.08353C5.9751 8.62264 6.30944 9.12665 6.70523 9.58337C7.56877 10.6534 8.60879 11.5764 9.78287 12.3147C9.9192 12.3966 10.0729 12.4729 10.2412 12.552L10.3949 12.6254C10.772 12.2498 11.1549 11.8797 11.5378 11.5097C11.7059 11.3277 11.9114 11.1822 12.1411 11.0825C12.3707 10.9829 12.6193 10.9314 12.8707 10.9314C13.1221 10.9314 13.3706 10.9829 13.6003 11.0825C13.8299 11.1822 14.0354 11.3277 14.2035 11.5097C14.8978 12.1782 15.5881 12.8504 16.2746 13.5265C16.4629 13.6917 16.6135 13.8937 16.7165 14.1192C16.8196 14.3447 16.8728 14.5888 16.8728 14.8356C16.8728 15.0825 16.8196 15.3266 16.7165 15.5521C16.6135 15.7776 16.4629 15.9796 16.2746 16.1448C16.1412 16.2748 16.0049 16.4047 15.8685 16.5346C15.6046 16.786 15.3522 17.0233 15.1231 17.2775C14.8429 17.5811 14.4976 17.821 14.1116 17.9801C13.7256 18.1392 13.3084 18.2137 12.8895 18.1983ZM1.60291 7.67962C2.2299 9.26875 3.13583 10.7397 4.28025 12.0266C5.79266 13.788 7.67097 15.2175 9.79157 16.2211C10.7014 16.6959 11.7014 16.9843 12.73 17.0685C13.0118 17.101 13.2975 17.0666 13.5627 16.9682C13.8279 16.8699 14.0647 16.7104 14.2528 16.5035C14.511 16.2211 14.7866 15.9584 15.0563 15.7042C15.1869 15.5799 15.3174 15.4556 15.4479 15.3285C15.5302 15.2688 15.5969 15.1913 15.6429 15.102C15.6889 15.0128 15.7129 14.9143 15.7129 14.8145C15.7129 14.7146 15.6889 14.6161 15.6429 14.5269C15.5969 14.4376 15.5302 14.3601 15.4479 14.3004C14.7634 13.6263 14.0749 12.9559 13.3826 12.2893C13.3225 12.2131 13.2452 12.1514 13.1567 12.109C13.0681 12.0665 12.9708 12.0444 12.8721 12.0444C12.7734 12.0444 12.6761 12.0665 12.5876 12.109C12.499 12.1514 12.4217 12.2131 12.3616 12.2893C11.9265 12.7102 11.4914 13.1197 11.0882 13.5378C10.9612 13.6803 10.7871 13.7752 10.5959 13.8061C10.4048 13.837 10.2085 13.8021 10.041 13.7072C9.93661 13.6507 9.82928 13.5999 9.72486 13.5519C9.54211 13.4643 9.35357 13.3739 9.16792 13.2694C7.88537 12.4645 6.74923 11.4574 5.80601 10.2895C5.2979 9.70516 4.88059 9.05138 4.56742 8.34904C4.48954 8.19129 4.46638 8.01318 4.50143 7.84151C4.53648 7.66985 4.62784 7.51391 4.76176 7.39716C5.08374 7.09493 5.39992 6.78706 5.71319 6.47636L6.02937 6.16565C6.39195 5.80976 6.39195 5.48776 6.02937 5.12339L5.339 4.44832L5.02283 4.14044C4.67764 3.79867 4.33246 3.45972 3.98438 3.12925C3.92364 3.053 3.84581 2.99129 3.75682 2.94884C3.66783 2.90639 3.57005 2.88432 3.47095 2.88432C3.37186 2.88432 3.27408 2.90639 3.18509 2.94884C3.0961 2.99129 3.01826 3.053 2.95753 3.12925C2.77769 3.29872 2.60655 3.4682 2.4325 3.63767C2.17724 3.88906 1.91908 4.14044 1.65512 4.38336C1.35946 4.64778 1.18323 5.01535 1.1649 5.40585C1.14255 6.18013 1.28886 6.95024 1.5942 7.66549L1.60291 7.67962ZM18.5691 9.10602H17.4088C17.4057 7.02364 16.5548 5.0274 15.0427 3.55493C13.5305 2.08246 11.4805 1.25391 9.34196 1.25092V0.121094C11.7882 0.124083 14.1334 1.07167 15.8631 2.75602C17.5929 4.44037 18.566 6.72399 18.5691 9.10602ZM15.4798 9.10602H14.3196C14.318 7.82099 13.7931 6.58902 12.86 5.68036C11.9268 4.77171 10.6616 4.26057 9.34196 4.25908V3.12925C10.9691 3.13149 12.529 3.76191 13.6796 4.88228C14.8301 6.00266 15.4775 7.52157 15.4798 9.10602Z" fill="#DDA046"/>
</svg>
