<svg width="30" height="50" viewBox="0 0 30 50" fill="none" xmlns="http://www.w3.org/2000/svg">
<path d="M29.1788 17.4705L16.6671 0.788237C15.8809 -0.262746 14.1168 -0.262746 13.3307 0.788237L0.818971 17.4705C0.345579 18.1024 0.270509 18.9469 0.622988 19.6538C0.977518 20.3607 1.69694 20.807 2.48723 20.807H8.74308V29.1481C8.74308 30.2991 9.67521 31.2333 10.8283 31.2333H19.1694C20.3226 31.2333 21.2547 30.2991 21.2547 29.1481V20.807H27.5105C28.3008 20.807 29.0224 20.3607 29.3768 19.6538C29.7293 18.9469 29.6542 18.1024 29.1788 17.4705Z" fill="url(#paint0_linear)"/>
<path d="M19.17 33.3176H10.8289C9.67577 33.3176 8.74365 34.2497 8.74365 35.4029C8.74365 36.556 9.67577 37.4881 10.8289 37.4881H19.17C20.3231 37.4881 21.2553 36.556 21.2553 35.4029C21.2553 34.2497 20.3231 33.3176 19.17 33.3176Z" fill="url(#paint1_linear)"/>
<path d="M19.17 39.5737H10.8289C9.67577 39.5737 8.74365 40.5059 8.74365 41.659C8.74365 42.8121 9.67577 43.7442 10.8289 43.7442H19.17C20.3231 43.7442 21.2553 42.8121 21.2553 41.659C21.2553 40.5059 20.3231 39.5737 19.17 39.5737Z" fill="url(#paint2_linear)"/>
<path d="M19.17 45.8296H10.8289C9.67577 45.8296 8.74365 46.7617 8.74365 47.9148C8.74365 49.068 9.67577 50.0001 10.8289 50.0001H19.17C20.3231 50.0001 21.2553 49.068 21.2553 47.9148C21.2553 46.7617 20.3231 45.8296 19.17 45.8296Z" fill="url(#paint3_linear)"/>
<defs>
<linearGradient id="paint0_linear" x1="14.9998" y1="0" x2="14.9998" y2="31.2333" gradientUnits="userSpaceOnUse">
<stop stop-color="#FFDC83"/>
<stop offset="0.25" stop-color="#FBD26A"/>
<stop offset="0.848958" stop-color="#C17024"/>
<stop offset="1" stop-color="#E3A548"/>
</linearGradient>
<linearGradient id="paint1_linear" x1="14.9995" y1="33.3176" x2="14.9995" y2="37.4881" gradientUnits="userSpaceOnUse">
<stop stop-color="#FFDC83"/>
<stop offset="0.25" stop-color="#FBD26A"/>
<stop offset="0.848958" stop-color="#C17024"/>
<stop offset="1" stop-color="#E3A548"/>
</linearGradient>
<linearGradient id="paint2_linear" x1="14.9995" y1="39.5737" x2="14.9995" y2="43.7442" gradientUnits="userSpaceOnUse">
<stop stop-color="#FFDC83"/>
<stop offset="0.25" stop-color="#FBD26A"/>
<stop offset="0.848958" stop-color="#C17024"/>
<stop offset="1" stop-color="#E3A548"/>
</linearGradient>
<linearGradient id="paint3_linear" x1="14.9995" y1="45.8296" x2="14.9995" y2="50.0001" gradientUnits="userSpaceOnUse">
<stop stop-color="#FFDC83"/>
<stop offset="0.25" stop-color="#FBD26A"/>
<stop offset="0.848958" stop-color="#C17024"/>
<stop offset="1" stop-color="#E3A548"/>
</linearGradient>
</defs>
</svg>
