<svg width="32" height="34" viewBox="0 0 32 34" fill="none" xmlns="http://www.w3.org/2000/svg">
<ellipse cx="15.9081" cy="16.8559" rx="15.5012" ry="16.2045" fill="#7C509A"/>
<path d="M20.7551 9.19573C17.801 8.60598 14.7332 8.60598 11.779 9.19573C10.4724 9.49061 8.82488 11.1419 8.54082 12.4394C8.02952 14.9753 8.02952 17.5702 8.54082 20.1061C8.88169 21.4036 10.5292 23.0549 11.779 23.3498C11.8358 23.3498 11.8927 23.4088 11.8927 23.4677V27.1832C11.8927 27.3601 12.1199 27.4781 12.2335 27.3011L13.9378 25.4729C13.9378 25.4729 15.3013 23.9985 15.5285 23.7626C15.5285 23.7626 15.5854 23.7036 15.6422 23.7036C17.3465 23.7626 19.1076 23.5857 20.812 23.2908C22.1186 22.9959 23.7661 21.3446 24.0502 20.0472C24.5615 17.5112 24.5615 14.9163 24.0502 12.3804C23.7093 11.1419 22.0618 9.49061 20.7551 9.19573ZM20.812 20.2831C20.5279 20.8728 20.187 21.3446 19.6189 21.6395C19.4485 21.6985 19.2781 21.7575 19.1076 21.8164C18.8804 21.7575 18.71 21.6985 18.5395 21.6395C16.7216 20.8728 15.0173 19.8113 13.6538 18.2779C12.9153 17.3933 12.2903 16.3907 11.779 15.3292C11.5518 14.7984 11.3245 14.3266 11.1541 13.7958C10.9837 13.324 11.2677 12.8522 11.5518 12.4983C11.8358 12.1445 12.1767 11.9086 12.5744 11.7317C12.8584 11.5547 13.1425 11.6727 13.3697 11.9086C13.8242 12.4983 14.2787 13.0881 14.6196 13.7368C14.8468 14.1497 14.79 14.6215 14.3923 14.9163C14.2787 14.9753 14.2219 15.0343 14.1083 15.1522C14.0515 15.2112 13.9378 15.2702 13.881 15.3881C13.7674 15.5651 13.7674 15.742 13.8242 15.9189C14.2787 17.2753 15.1309 18.3369 16.4375 18.9266C16.6648 19.0446 16.8352 19.1036 17.1193 19.1036C17.5169 19.0446 17.6874 18.5728 17.9714 18.3369C18.2555 18.101 18.5963 18.101 18.9372 18.2779C19.2212 18.4548 19.5053 18.6907 19.8462 18.9266C20.1302 19.1625 20.4143 19.3395 20.6983 19.5754C20.8688 19.6933 20.9256 19.9882 20.812 20.2831ZM18.4259 15.8599C18.3123 15.8599 18.3691 15.8599 18.4259 15.8599C18.1987 15.8599 18.1418 15.742 18.085 15.5651C18.085 15.4471 18.085 15.2702 18.0282 15.1522C17.9714 14.9163 17.8578 14.6804 17.6305 14.5035C17.5169 14.4445 17.4033 14.3856 17.2897 14.3266C17.1192 14.2676 17.0056 14.2676 16.8352 14.2676C16.6648 14.2086 16.608 14.0907 16.608 13.9138C16.608 13.7958 16.7784 13.6778 16.892 13.6778C17.801 13.7368 18.4827 14.2676 18.5963 15.3881C18.5963 15.4471 18.5963 15.5651 18.5963 15.624C18.5963 15.742 18.5395 15.8599 18.4259 15.8599ZM17.8578 13.265C17.5737 13.1471 17.2897 13.0291 16.9488 12.9701C16.8352 12.9701 16.6648 12.9112 16.5511 12.9112C16.3807 12.9112 16.2671 12.7932 16.3239 12.6163C16.3239 12.4394 16.4375 12.3214 16.608 12.3804C17.1761 12.4394 17.6874 12.5573 18.1987 12.7932C19.2213 13.324 19.7894 14.2086 19.9598 15.3881C19.9598 15.4471 19.9598 15.5061 19.9598 15.5651C19.9598 15.683 19.9598 15.801 19.9598 15.9779C19.9598 16.0369 19.9598 16.0958 19.9598 16.1548C19.903 16.3907 19.5053 16.4497 19.4485 16.1548C19.4485 16.0958 19.3917 15.9779 19.3917 15.9189C19.3917 15.3881 19.2781 14.8574 19.0508 14.3856C18.71 13.8548 18.3123 13.5009 17.8578 13.265ZM20.9256 16.8035C20.7551 16.8035 20.6415 16.6266 20.6415 16.4497C20.6415 16.0958 20.5847 15.742 20.5279 15.3881C20.3007 13.5009 18.8236 11.9676 17.0624 11.6727C16.7784 11.6137 16.4943 11.6137 16.2671 11.5547C16.0967 11.5547 15.8694 11.5547 15.8126 11.3188C15.7558 11.1419 15.9262 10.965 16.0967 10.965C16.1535 10.965 16.2103 10.965 16.2103 10.965C18.5395 11.024 16.3239 10.965 16.2103 10.965C18.5963 11.024 20.5847 12.6753 20.9824 15.1522C21.0392 15.5651 21.096 15.9779 21.096 16.4497C21.2096 16.6266 21.096 16.8035 20.9256 16.8035Z" fill="white"/>
</svg>
